<?xml version="1.0" standalone="no"?>
<!DOCTYPE svg PUBLIC "-//W3C//DTD SVG 20010904//EN"
 "http://www.w3.org/TR/2001/REC-SVG-20010904/DTD/svg10.dtd">
<svg version="1.0" xmlns="http://www.w3.org/2000/svg"
 width="1280.000000pt" height="1233.000000pt" viewBox="0 0 1280.000000 1233.000000"
 preserveAspectRatio="xMidYMid meet">
<g transform="translate(0.000000,1233.000000) scale(0.100000,-0.100000)"
fill="#000000" stroke="none">
<path d="M6326 11355 c-35 -37 -367 -708 -574 -1160 -99 -214 -295 -642 -437
-950 -271 -590 -455 -976 -506 -1060 -17 -28 -45 -61 -63 -73 -76 -52 -269
-91 -1601 -327 -1403 -248 -1988 -358 -2049 -387 -34 -15 -40 -36 -19 -68 17
-26 220 -213 478 -440 199 -175 235 -205 1400 -1150 650 -527 851 -703 893
-780 22 -42 23 -52 18 -140 -14 -215 -41 -360 -311 -1675 -306 -1489 -384
-1902 -369 -1960 12 -50 41 -43 237 50 350 169 495 246 1387 745 956 535 1119
624 1317 723 217 109 316 147 380 147 54 0 200 -56 417 -159 119 -57 734 -373
1051 -541 352 -186 903 -470 1070 -551 245 -119 615 -285 654 -294 38 -8 61
15 61 62 0 94 -80 543 -329 1843 -238 1243 -265 1385 -296 1600 -34 225 -41
337 -25 385 25 75 153 189 1140 1014 399 333 797 669 885 746 267 233 636 576
647 601 15 32 -2 50 -60 63 -104 22 -734 96 -1547 181 -1756 184 -1972 210
-2059 249 -36 15 -54 33 -86 83 -51 78 -350 674 -854 1700 -408 831 -423 861
-630 1252 -125 238 -162 296 -186 296 -6 0 -22 -11 -34 -25z"/>
</g>
</svg>
